<?xml version="1.0" encoding="utf-8"?>
<!-- Generator: Adobe Illustrator 16.0.0, SVG Export Plug-In . SVG Version: 6.00 Build 0)  -->
<!DOCTYPE svg PUBLIC "-//W3C//DTD SVG 1.1//EN" "http://www.w3.org/Graphics/SVG/1.1/DTD/svg11.dtd">
<svg version="1.1" id="圖層_1" xmlns="http://www.w3.org/2000/svg" xmlns:xlink="http://www.w3.org/1999/xlink" x="0px" y="0px"
	 width="915.66px" height="589.5px" viewBox="0 0 915.66 589.5" enable-background="new 0 0 915.66 589.5" xml:space="preserve">
<g>
	<circle fill="none" stroke="#FFF7AB" stroke-width="3" stroke-miterlimit="10" cx="458.818" cy="579.435" r="8.289"/>
	<g>
		<path fill="none" stroke="#FFF7AB" stroke-width="3" stroke-miterlimit="10" d="M97.157,397.157
			c6.225,11.316-2.744,29.998-22.018,40.603c-19.273,10.604-48.318,9.472-51.127,1.981c-2.972-7.927,7.7-33.268,26.975-43.872
			C70.261,385.265,90.932,385.842,97.157,397.157z"/>
		<circle fill="none" stroke="#FFF7AB" stroke-width="3" stroke-miterlimit="10" cx="80.688" cy="393.568" r="2.774"/>
		<circle fill="none" stroke="#FFF7AB" stroke-width="3" stroke-miterlimit="10" cx="83.463" cy="405.062" r="2.774"/>
		<circle fill="none" stroke="#FFF7AB" stroke-width="3" stroke-miterlimit="10" cx="91.984" cy="412.791" r="2.774"/>
		<circle fill="none" stroke="#FFF7AB" stroke-width="3" stroke-miterlimit="10" cx="137.563" cy="372.365" r="10.701"/>
		
			<ellipse transform="matrix(0.8494 -0.5277 0.5277 0.8494 -184.3471 121.1985)" fill="none" stroke="#FFF7AB" stroke-width="3" stroke-miterlimit="10" cx="120.222" cy="383.661" rx="7.643" ry="19.3"/>
		
			<ellipse transform="matrix(0.8494 -0.5277 0.5277 0.8494 -191.2524 114.7865)" fill="none" stroke="#FFF7AB" stroke-width="3" stroke-miterlimit="10" cx="105.5" cy="392.502" rx="9.544" ry="24.22"/>
		<path fill="none" stroke="#FFF7AB" stroke-width="3" stroke-miterlimit="10" d="M79.995,442.912l-3.32-6.028l-8.88,4.212
			c0,0,2.985,2.313,4.868,3.204c0.099,0.198,3.765,1.293,5.251,1.24C77.914,445.389,80.887,446.479,79.995,442.912z"/>
		<path fill="none" stroke="#FFF7AB" stroke-width="3" stroke-miterlimit="10" d="M44.325,445.586c0,0,0.099,8.225,1.288,11.396
			c-0.099-0.099,3.27,9.513,3.27,9.513s3.17,8.224,4.854,8.719c-0.198,0,16.646,2.576,16.646,2.576s3.864-0.198,4.36-3.369
			c0.099,0.098-3.072-6.936-4.855-8.719c-0.099,0-2.874-3.766-3.17-9.611c-0.297,0.098,0.099-7.927,0.099-7.927l0.978-7.068
			c0,0-2.531,1.391-11.167,3.09C56.741,444.164,44.325,445.586,44.325,445.586z"/>
		<polygon fill="none" stroke="#FFF7AB" stroke-width="3" stroke-miterlimit="10" points="34.648,429.305 48.254,417.68 
			49.444,420.402 60.541,411.999 62.919,415.565 75.998,408.828 62.787,420.402 60.41,417.811 50.369,427.192 47.991,424.021 
			38.479,435.119 		"/>
		<path fill="none" stroke="#FFF7AB" stroke-width="3" stroke-miterlimit="10" d="M72.287,388.651c0,0-33.807,4.19-45.961,17.799
			c0,0.132-6.431,6.294,0.153,17.944C26.507,424.327,37.925,392.785,72.287,388.651z"/>
		
			<ellipse transform="matrix(0.5232 0.8522 -0.8522 0.5232 384.6546 111.5479)" fill="none" stroke="#FFF7AB" stroke-width="3" stroke-miterlimit="10" cx="92.645" cy="399.512" rx="6.453" ry="2.378"/>
		<path fill="none" stroke="#FFF7AB" stroke-width="3" stroke-miterlimit="10" d="M91.191,396.343l35.67-21.075
			c0,0,1.305,3.692,4.88,6.073c-0.261-0.173-36.983,20.946-36.983,20.946S90.398,402.093,91.191,396.343z"/>
	</g>
	<g>
		<polygon fill="none" stroke="#FFF7AB" stroke-width="3" stroke-miterlimit="10" points="344.053,232.922 336.063,222.545 
			322.986,223.243 330.386,212.438 325.68,200.217 338.244,203.916 348.413,195.664 348.777,208.754 359.768,215.875 
			347.43,220.268 		"/>
		<path fill="none" stroke="#FFF7AB" stroke-width="3" stroke-miterlimit="10" d="M327.431,204.763"/>
		<path fill="none" stroke="#FFF7AB" stroke-width="3" stroke-miterlimit="10" d="M327.431,204.763c0,0-35.854-21.064-85.854-17.649
			c-0.31,0.311,7.454,6.833,7.454,6.833l-7.462,8.075l6.058,5.59l-6.058,6.68c0,0,35.691-15.058,85.863,0"/>
	</g>
	<g>
		<path fill="none" stroke="#FFF7AB" stroke-width="3" stroke-miterlimit="10" d="M137.247,221.066
			c-3.582,31.06-33.277,51.967-64.336,48.386c-31.06-3.582-54.892-30.958-51.311-62.017c1.482-12.854,8.171-24.644,17.706-33.792
			c13.505-12.961,32.717-20.627,50.923-18.528C121.289,158.697,140.829,190.007,137.247,221.066z"/>
		<path fill="none" stroke="#FFF7AB" stroke-width="3" stroke-miterlimit="10" d="M39.306,173.644c0,0-0.472-6.739,0.896-7.763
			c0.033,0.299,11.15-9.048,18.704-10.539c0.582,0.066,2.37-0.143,8.789,1.84c-0.037,0.011-11.441,4.333-14.21,5.971
			C53.782,162.989,42.525,170.33,39.306,173.644z"/>
		<path fill="none" stroke="#FFF7AB" stroke-width="3" stroke-miterlimit="10" d="M20.894,213.555c0,0-3.183,1.994-4.292,3.934
			c-0.033,0.292,2.466,14.457,4.271,16.732c0.259,0.323,2.159,1.625,5.495,2.207c-0.028-0.059-3.393-8.763-3.92-11.574
			C22.414,224.705,20.5,215.607,20.894,213.555z"/>
		<path fill="none" stroke="#FFF7AB" stroke-width="3" stroke-miterlimit="10" d="M61.64,267.033c0,0,0.563,3.94,3.055,4.524
			c0.011-0.097,5.956-0.388,8.25-1.135c0.058-0.073,6.465-0.159,11.413,1.315c-0.089-0.089,5.391,1.274,5.493-2.722
			c-0.039,0.005-8.821,1.16-13.318,0.744C76.515,269.757,68.391,269.645,61.64,267.033z"/>
		<path fill="none" stroke="#FFF7AB" stroke-width="3" stroke-miterlimit="10" d="M135.904,198.691
			c-0.056-0.191,1.503-0.783,3.611,2.707c-0.034,0.291,1.709,1.819,1.25,14.759c0,0-0.638,5.538-3.737,6.803
			c-0.036,0,1.089-7.425,0.531-12.967C137.572,210.237,137.624,204.655,135.904,198.691z"/>
		
			<ellipse transform="matrix(0.837 0.5472 -0.5472 0.837 112.7527 -28.9331)" fill="none" stroke="#FFF7AB" stroke-width="3" stroke-miterlimit="10" cx="104.944" cy="174.802" rx="11.048" ry="8.197"/>
		
			<ellipse transform="matrix(0.8045 0.5939 -0.5939 0.8045 161.0994 -9.3375)" fill="none" stroke="#FFF7AB" stroke-width="3" stroke-miterlimit="10" cx="94.735" cy="240.076" rx="12.479" ry="9.141"/>
		
			<ellipse transform="matrix(0.4048 -0.9144 0.9144 0.4048 -165.9751 152.835)" fill="none" stroke="#FFF7AB" stroke-width="3" stroke-miterlimit="10" cx="34.417" cy="203.916" rx="11.996" ry="7.232"/>
		
			<ellipse transform="matrix(0.9008 -0.4342 0.4342 0.9008 -81.0697 51.7533)" fill="none" stroke="#FFF7AB" stroke-width="3" stroke-miterlimit="10" cx="72.758" cy="203.346" rx="4.595" ry="7.871"/>
		
			<ellipse transform="matrix(0.9873 -0.1589 0.1589 0.9873 -24.7064 13.7432)" fill="none" stroke="#FFF7AB" stroke-width="3" stroke-miterlimit="10" cx="73.586" cy="161.366" rx="5.159" ry="2.249"/>
		
			<ellipse transform="matrix(-0.9093 -0.4162 0.4162 -0.9093 -18.9865 403.4666)" fill="none" stroke="#FFF7AB" stroke-width="3" stroke-miterlimit="10" cx="34.483" cy="203.803" rx="4.304" ry="8.41"/>
		
			<ellipse transform="matrix(0.6998 0.7144 -0.7144 0.6998 199.7625 4.5023)" fill="none" stroke="#FFF7AB" stroke-width="3" stroke-miterlimit="10" cx="94.525" cy="239.908" rx="7.724" ry="4.938"/>
		
			<ellipse transform="matrix(0.7299 -0.6835 0.6835 0.7299 -90.6871 119.1367)" fill="none" stroke="#FFF7AB" stroke-width="3" stroke-miterlimit="10" cx="105.423" cy="174.332" rx="4.606" ry="6.889"/>
		<path fill="none" stroke="#FFF7AB" stroke-width="3" stroke-miterlimit="10" d="M92.193,167.096
			c0.063-0.541-2.754-1.307-6.297-1.717"/>
		<path fill="none" stroke="#FFF7AB" stroke-width="3" stroke-miterlimit="10" d="M91.828,170.259
			c-0.086,0.752-2.675,1.07-5.79,0.712"/>
		<path fill="none" stroke="#FFF7AB" stroke-width="3" stroke-miterlimit="10" d="M90.631,173.153
			c-0.156,1.354-2.021,2.25-4.167,2.001"/>
		<path fill="none" stroke="#FFF7AB" stroke-width="3" stroke-miterlimit="10" d="M92.21,177.193
			c-0.16,1.391-2.062,2.314-4.251,2.061"/>
		<path fill="none" stroke="#FFF7AB" stroke-width="3" stroke-miterlimit="10" d="M96.641,181.445
			c-0.235,2.039-1.388,3.579-2.576,3.442"/>
		<path fill="none" stroke="#FFF7AB" stroke-width="3" stroke-miterlimit="10" d="M100.892,184.69
			c-0.223,1.933-1.614,3.358-3.111,3.186"/>
		<path fill="none" stroke="#FFF7AB" stroke-width="3" stroke-miterlimit="10" d="M106.04,185.284
			c-0.31,2.685-0.387,4.877-0.172,4.901"/>
		<path fill="none" stroke="#FFF7AB" stroke-width="3" stroke-miterlimit="10" d="M110.186,185.761
			c-0.309,2.685-0.068,4.916,0.539,4.984"/>
		<path fill="none" stroke="#FFF7AB" stroke-width="3" stroke-miterlimit="10" d="M114.402,184.795
			c-0.154,1.327,0.487,2.492,1.433,2.601"/>
		<path fill="none" stroke="#FFF7AB" stroke-width="3" stroke-miterlimit="10" d="M115.542,182.436
			c-0.156,1.357,2.097,2.733,5.039,3.072"/>
		<path fill="none" stroke="#FFF7AB" stroke-width="3" stroke-miterlimit="10" d="M28.186,216.068
			c-0.334,2.899,0.48,5.37,1.82,5.524"/>
		<path fill="none" stroke="#FFF7AB" stroke-width="3" stroke-miterlimit="10" d="M31.582,216.46
			c-0.334,2.9,0.008,5.314,0.767,5.402"/>
		<path fill="none" stroke="#FFF7AB" stroke-width="3" stroke-miterlimit="10" d="M35.597,215.786
			c-0.159,1.374,0.767,2.604,2.07,2.753"/>
		<path fill="none" stroke="#FFF7AB" stroke-width="3" stroke-miterlimit="10" d="M39.217,213.402
			c-0.176,1.527,0.898,2.904,2.402,3.077"/>
		<path fill="none" stroke="#FFF7AB" stroke-width="3" stroke-miterlimit="10" d="M41.481,210.515
			c-0.142,1.231,1.758,2.46,4.248,2.746"/>
		<path fill="none" stroke="#FFF7AB" stroke-width="3" stroke-miterlimit="10" d="M44.294,205.918
			c-0.013,0.107,1.857,0.412,4.18,0.68"/>
		<path fill="none" stroke="#FFF7AB" stroke-width="3" stroke-miterlimit="10" d="M44.742,202.034
			c-0.013,0.108,1.858,0.411,4.18,0.679"/>
		<path fill="none" stroke="#FFF7AB" stroke-width="3" stroke-miterlimit="10" d="M43.685,198.564
			c0.025-0.214,2.567-0.097,5.685,0.262"/>
		<line fill="none" stroke="#FFF7AB" stroke-width="3" stroke-miterlimit="10" x1="43.396" y1="195.994" x2="44.337" y2="196.103"/>
		<path fill="none" stroke="#FFF7AB" stroke-width="3" stroke-miterlimit="10" d="M98.747,228.536
			c0.186-1.611,1.354-2.797,2.612-2.651"/>
		
			<line fill="none" stroke="#FFF7AB" stroke-width="3" stroke-miterlimit="10" x1="102.377" y1="230.821" x2="105.167" y2="229.276"/>
		
			<line fill="none" stroke="#FFF7AB" stroke-width="3" stroke-miterlimit="10" x1="103.296" y1="234.177" x2="107.408" y2="232.685"/>
		
			<line fill="none" stroke="#FFF7AB" stroke-width="3" stroke-miterlimit="10" x1="106.871" y1="237.345" x2="110.346" y2="234.99"/>
		
			<line fill="none" stroke="#FFF7AB" stroke-width="3" stroke-miterlimit="10" x1="108.099" y1="239.456" x2="113.395" y2="239.281"/>
		
			<line fill="none" stroke="#FFF7AB" stroke-width="3" stroke-miterlimit="10" x1="108.724" y1="241.546" x2="111.101" y2="244.332"/>
		<line fill="none" stroke="#FFF7AB" stroke-width="3" stroke-miterlimit="10" x1="90.522" y1="250.814" x2="88.307" y2="253.71"/>
		<line fill="none" stroke="#FFF7AB" stroke-width="3" stroke-miterlimit="10" x1="86.639" y1="249.281" x2="84.601" y2="251.707"/>
		<line fill="none" stroke="#FFF7AB" stroke-width="3" stroke-miterlimit="10" x1="85.184" y1="246.657" x2="82.644" y2="249.906"/>
		<line fill="none" stroke="#FFF7AB" stroke-width="3" stroke-miterlimit="10" x1="82.587" y1="242.911" x2="79.752" y2="246.818"/>
		<line fill="none" stroke="#FFF7AB" stroke-width="3" stroke-miterlimit="10" x1="80.745" y1="241.813" x2="77.806" y2="242.36"/>
		
			<ellipse transform="matrix(0.8914 0.4532 -0.4532 0.8914 86.5694 1.1264)" fill="none" stroke="#FFF7AB" stroke-width="3" stroke-miterlimit="10" cx="40.934" cy="181.217" rx="2.711" ry="4.99"/>
		
			<ellipse transform="matrix(0.9449 -0.3275 0.3275 0.9449 -76.5196 28.4178)" fill="none" stroke="#FFF7AB" stroke-width="3" stroke-miterlimit="10" cx="46.124" cy="241.426" rx="3.617" ry="5.805"/>
		
			<ellipse transform="matrix(0.9341 -0.3569 0.3569 0.9341 -85.7216 53.5054)" fill="none" stroke="#FFF7AB" stroke-width="3" stroke-miterlimit="10" cx="102.122" cy="259.031" rx="4.556" ry="3.118"/>
		
			<ellipse transform="matrix(0.9934 0.1145 -0.1145 0.9934 25.1188 -6.6683)" fill="none" stroke="#FFF7AB" stroke-width="3" stroke-miterlimit="10" cx="70.617" cy="215.363" rx="2.998" ry="3.041"/>
		
			<ellipse transform="matrix(0.9934 0.1145 -0.1145 0.9934 22.3389 -7.4595)" fill="none" stroke="#FFF7AB" stroke-width="3" stroke-miterlimit="10" cx="76.125" cy="190.791" rx="1.907" ry="1.858"/>
		
			<ellipse transform="matrix(0.9165 0.4 -0.4 0.9165 72.3354 -12.2995)" fill="none" stroke="#FFF7AB" stroke-width="3" stroke-miterlimit="10" cx="65.635" cy="167.153" rx="5.497" ry="3.096"/>
		
			<ellipse transform="matrix(0.896 -0.4441 0.4441 0.896 -75.9366 75.1954)" fill="none" stroke="#FFF7AB" stroke-width="3" stroke-miterlimit="10" cx="122.538" cy="199.687" rx="3.569" ry="7.528"/>
	</g>
	<g>
		<path fill="none" stroke="#FFF7AB" stroke-width="3" stroke-miterlimit="10" d="M557.741,376.78c0,0-7.48-5.264-14.959,9.972
			c-0.277,0.278-2.416,7.757-8.688,9.696c-0.454,0.278-1.147,3.255,1.9,8.795c0,0.069-1.385,8.033,1.455,11.15
			c-0.069,0,5.748,13.296,14.543,10.457c0.139,0.139,7.479-0.138,10.942,1.801c0.07-0.069,7.203,1.454,14.267-5.333
			c0.069-0.138,12.812,1.592,12.119-14.196c0,0,2.216-5.419,3.601-6.795c0-0.131,3.255-3.663-0.415-7.125
			c0.069,0.068-3.878-6.303-4.848-11.08c0,0-1.247-6.441-10.734-6.65c-0.069,0-5.61-1.107-9.28-4.569
			C567.645,372.832,563.766,367.639,557.741,376.78z"/>
		<path fill="none" stroke="#FFF7AB" stroke-width="3" stroke-miterlimit="10" d="M545.368,393.217c0,0-1.57,2.031,1.293,4.801
			c0,0.093-1.662,5.263,2.031,5.449"/>
		<path fill="none" stroke="#FFF7AB" stroke-width="3" stroke-miterlimit="10" d="M561.435,402.265c0,0-3.509,7.295,6.926,4.987
			c0.092,0.184,6.556,8.125,7.756,1.292"/>
		<path fill="none" stroke="#FFF7AB" stroke-width="3" stroke-miterlimit="10" d="M583.781,384.721c0,0,2.216,0.739-0.923,4.617
			c0-0.185-1.621,2.77,1.683,5.355"/>
		<path fill="none" stroke="#FFF7AB" stroke-width="3" stroke-miterlimit="10" d="M554.324,418.61c0,0-4.898,2.769,9.647,7.017"/>
		<path fill="none" stroke="#FFF7AB" stroke-width="3" stroke-miterlimit="10" d="M559.958,387.72c0,2.78,0.732,5.032-1.207,5.032
			c-1.938,0-5.812-2.252-5.812-5.032c0-2.779-1.346-4.663,0.592-4.663S559.958,384.941,559.958,387.72z"/>
		<path fill="none" stroke="#FFF7AB" stroke-width="3" stroke-miterlimit="10" d="M575.101,384.65c0,1.695,0.632,4.132-0.923,4.132
			c-1.556,0-4.71-2.438-4.71-4.132c0-1.697,0.015-4.179,1.57-4.179C572.593,380.472,575.101,382.954,575.101,384.65z"/>
		
			<ellipse transform="matrix(0.971 -0.2392 0.2392 0.971 -82.8251 142.3631)" fill="none" stroke="#FFF7AB" stroke-width="3" stroke-miterlimit="10" cx="545.044" cy="412.375" rx="3.647" ry="5.125"/>
		
			<ellipse transform="matrix(0.8789 0.4771 -0.4771 0.8789 267.5526 -218.3374)" fill="none" stroke="#FFF7AB" stroke-width="3" stroke-miterlimit="10" cx="563.717" cy="417.685" rx="2.559" ry="3.97"/>
		<path fill="none" stroke="#FFF7AB" stroke-width="3" stroke-miterlimit="10" d="M576.116,400.665
			c-1.396,1.756-3.895,2.802-5.909,2.802c-2.015,0-0.977-3.817,0.035-5.82c1.166-2.308,4.599-2.953,6.614-2.953
			C578.87,394.694,577.963,398.341,576.116,400.665z"/>
		<path fill="none" stroke="#FFF7AB" stroke-width="3" stroke-miterlimit="10" d="M567.645,372.902c0,0,11.797-10.896,13.089-5.726
			c0,0.091,1.755,6.648,22.438-6.741c0.185,0.093-3.14,10.62,3.694,9.603c-0.185-0.091-8.958,13.017-3.787,14.589
			c0.093,0.001-4.663,6.184-4.639,10.066c0.022-0.09-4.206,3.691-4.213,3.647"/>
		<path fill="none" stroke="#FFF7AB" stroke-width="3" stroke-miterlimit="10" d="M583.484,422.119c0,0,4.313-0.461,7.083-3.509
			c0-0.139,1.969-5.264,3.686-10.389c0.054-0.277,4.348-2.494,7.395-2.77c0-0.139,1.246,4.432,4.432-9.28
			c0.139,0,3.879-6.14,10.527-11.45c-0.277-0.186-9.557-0.6,7.895-19.992c-0.138,0-15.236,0.97-2.77-20.36
			c-0.138,0-16.482,17.729-15.79-3.325c-0.138,0-12.881,34.073-27.009,14.958c0-0.138-4.293,8.311-11.911,6.095
			c-0.139,0-5.541,1.8-8.588,8.449c0,0-4.017,3.877-10.111,4.155c-0.276-0.138-5.401,3.74-5.54,12.05"/>
		<path fill="none" stroke="#FFF7AB" stroke-width="3" stroke-miterlimit="10" d="M540.566,381.582c0,0,0.185-10.619,18.837-21.146
			c-0.185,0.37,14.959-6.094,20.5-13.667c0.185-0.184,7.463-9.971,14.351-10.341c-0.13,0-7.518,9.789-8.626,11.634
			c0.185,0.74-0.923,14.59,9.788-1.293c0,0.185,11.82-19.943,29.087-18.835c0.093,0.554-25.671,23.084,3.555,7.571
			c-0.138-0.369,8.542-6.649,16.297-3.509c0,0.186-12.188,6.648-18.098,16.252c0-0.186-9.973,21.422,8.126,9.604
			c0,0.368-0.167,8.529-9.881,14.407c0.461,0.552-16.713,15.512,6.741,4.985c-0.185,0.184-1.125,10.248-12.189,13.298
			c0-0.184-8.125,3.14-15.143,19.392c-0.185,0.369-5.407,11.645-20.27,14.958c0.139,0.369-4.302,0-10.115,7.942
			c0.097,0.184-4.521,2.954-10.615,0c-0.369,0-2.511-1.723-9.381,1.354c0.332,0.307-7.073,4.74-12.235-1.54
			c-0.176,0.185-1.468-5.179-9.964-7.022c-0.185-0.18-4.432-1.493-3.509-11.641c0.37,0.565,3.432-3.867-0.131-12.917
			c-0.238-0.185-5.779-5.363,3.455-11.362C530.963,389.988,538.35,390.166,540.566,381.582z"/>
	</g>
	<g>
		<circle fill="none" stroke="#FFF7AB" stroke-width="3" stroke-miterlimit="10" cx="456.425" cy="70.727" r="6.93"/>
		<circle fill="none" stroke="#FFF7AB" stroke-width="3" stroke-miterlimit="10" cx="456.425" cy="70.727" r="13.809"/>
		<circle fill="none" stroke="#FFF7AB" stroke-width="3" stroke-miterlimit="10" cx="445.825" cy="32.96" r="2.293"/>
		<circle fill="none" stroke="#FFF7AB" stroke-width="3" stroke-miterlimit="10" cx="452.817" cy="35.316" r="2.598"/>
		<circle fill="none" stroke="#FFF7AB" stroke-width="3" stroke-miterlimit="10" cx="460.74" cy="35.01" r="2.904"/>
		<circle fill="none" stroke="#FFF7AB" stroke-width="3" stroke-miterlimit="10" cx="468.348" cy="35.157" r="2.904"/>
		<path fill="none" stroke="#FFF7AB" stroke-width="3" stroke-miterlimit="10" d="M453.024,11.765c0,0,4.933-8.658,9.438-3.852
			c0,0,3.544,6-0.06,7.409c-3.603,1.411-3.986-0.531-9.43,7.788c-0.198-0.086-7.339,8.188-5.219-0.75
			C449.614,14.52,449.984,15.744,453.024,11.765z"/>
		<polygon fill="none" stroke="#FFF7AB" stroke-width="3" stroke-miterlimit="10" points="453.259,116.387 456.246,116.752 
			457.233,140 449.508,140.392 		"/>
		<path fill="none" stroke="#FFF7AB" stroke-width="3" stroke-miterlimit="10" d="M480.027,112.929l3.04-2.721
			c0,0,16.362,13.672,16.687,14.488c0.324,0.816-2.444,3.582-2.444,3.582l-16.985-14.59L480.027,112.929z"/>
		<path fill="none" stroke="#FFF7AB" stroke-width="3" stroke-miterlimit="10" d="M440.86,85.78c0,0,0.468-11.124-4.6,0.267
			c-0.095,0.036-1.242,15.584-1.392,20.239c0,0-1.675,34.354-0.942,37.352c0,0,1.826,13.072,4.315-0.155
			C438.127,143.746,440.86,85.78,440.86,85.78z"/>
		<polygon fill="none" stroke="#FFF7AB" stroke-width="3" stroke-miterlimit="10" points="449.508,140.392 450.148,169.471 
			457.609,168.963 457.233,140 		"/>
		<path fill="none" stroke="#FFF7AB" stroke-width="3" stroke-miterlimit="10" d="M497.31,128.279c0,0,0.756,31.514,1.341,32.306
			c0.584,0.793,3.642-5.116,3.642-5.116s-1.467-30.825-2.539-30.772C498.682,124.75,497.31,128.279,497.31,128.279z"/>
		<path fill="none" stroke="#FFF7AB" stroke-width="3" stroke-miterlimit="10" d="M480.027,112.929
			c-0.606,0.771,0.534,35.248,0.534,35.248s17.723,12.921,18.089,12.407c0.366-0.512-1.341-32.306-1.341-32.306
			S480.634,112.159,480.027,112.929z"/>
		<path fill="none" stroke="#FFF7AB" stroke-width="3" stroke-miterlimit="10" d="M414.334,128.15l17.263-14.624l-3.101-1.004
			c0,0-17.205,13.832-16.991,14.271C411.721,127.234,414.334,128.15,414.334,128.15z"/>
		<path fill="none" stroke="#FFF7AB" stroke-width="3" stroke-miterlimit="10" d="M411.267,154.953c0,0,1.313,7.351,1.934,6.629
			c0.622-0.721,1.064-33.372,1.272-33.076c0.208,0.296-2.649-2.063-2.967-1.712C411.188,127.145,411.267,154.953,411.267,154.953z"
			/>
		<path fill="none" stroke="#FFF7AB" stroke-width="3" stroke-miterlimit="10" d="M431.628,146.996l-0.03-33.47l-17.124,14.98
			c0,0-2.841,32.022-1.272,33.076C414.77,162.638,431.628,146.996,431.628,146.996z"/>
		<path fill="none" stroke="#FFF7AB" stroke-width="3" stroke-miterlimit="10" d="M429.408,148.754c0,0,13.476,7.416,20.43,6.57"/>
		<path fill="none" stroke="#FFF7AB" stroke-width="3" stroke-miterlimit="10" d="M438.071,144.35c0,0,8.078,3.21,11.59,2.986"/>
		
			<line fill="none" stroke="#FFF7AB" stroke-width="3" stroke-miterlimit="10" x1="431.624" y1="141.858" x2="433.803" y2="142.504"/>
		<path fill="none" stroke="#FFF7AB" stroke-width="3" stroke-miterlimit="10" d="M457.325,147.037c0,0,10.224,0.43,23.147-4.774"/>
		<path fill="none" stroke="#FFF7AB" stroke-width="3" stroke-miterlimit="10" d="M457.429,155.069c0,0,8.989,2.623,26.168-4.811"/>
		<path fill="none" stroke="#FFF7AB" stroke-width="3" stroke-miterlimit="10" d="M477.584,37.511c0,0-16.371,9.46-37.976,0.178
			c-0.102-0.179,4.174-13.038,6.371-18.055c1.652-2.915,13.63-33.091,25.157-2.964C471.284,17.05,473.128,21.142,477.584,37.511z"/>
		<path fill="none" stroke="#FFF7AB" stroke-width="3" stroke-miterlimit="10" d="M477.795,38.44c0,0,4.897,12.707,8.005,74.142"/>
		<path fill="none" stroke="#FFF7AB" stroke-width="3" stroke-miterlimit="10" d="M437.306,46.361c0,0-8.795,43.097-8.063,65.131"/>
		<path fill="none" stroke="#FFF7AB" stroke-width="3" stroke-miterlimit="10" d="M433.043,150.59c0,0-13.962,10.5-12.386,30.072
			c1.336,1.158,16.375-10.269,17.795-8.759c1.42,1.51-7.706,7.279-4.659,31.036c0.539,0.118,5.141-8.083,12.671-10.532
			c-0.016,0.498,4.915,33.076,5.871,32.992c0.957-0.084,9.947-6.676,10.62-30.574c0,0,7.962,11.739,8.195,11.733
			s13.463-9.648,4.746-31.54c0.19,0.068,9.078,4.424,9.695,4.232c0.618-0.191,4.988-6.556-5.943-27.39"/>
	</g>
	<g>
		<path fill="none" stroke="#FFF7AB" stroke-width="3" stroke-miterlimit="10" d="M807.22,151.579c0,0-2.179-10.583,11.518-4.669
			c-1.245-1.557,5.058,2.646,8.016,8.638c0.155-3.112,1.945,8.716-4.825,7.238c0,0,2.413-8.639-5.214-11.362
			C816.714,151.5,811.267,147.999,807.22,151.579z"/>
		<path fill="none" stroke="#FFF7AB" stroke-width="3" stroke-miterlimit="10" d="M794.301,159.828c0,0,12.063-8.792,12.918-8.249"
			/>
		
			<line fill="none" stroke="#FFF7AB" stroke-width="3" stroke-miterlimit="10" x1="814.924" y1="177.493" x2="821.928" y2="162.785"/>
		<path fill="none" stroke="#FFF7AB" stroke-width="3" stroke-miterlimit="10" d="M789.243,159.828c0,0-2.958,0-1.712,3.58
			c0,0,7.938,1.515,11.984,3.56c0,0.021,9.183,4.689,11.595,14.028c0.079-0.077,5.37,5.76,3.813-3.189
			c0.078,0.077-3.19-7.161-7.704-11.83C807.297,165.976,798.582,158.349,789.243,159.828z"/>
		
			<line fill="none" stroke="#FFF7AB" stroke-width="3" stroke-miterlimit="10" x1="773.498" y1="178.246" x2="787.531" y2="163.407"/>
		<path fill="none" stroke="#FFF7AB" stroke-width="3" stroke-miterlimit="10" d="M811.11,180.995l-16.809,14.787
			c0,0-5.447-10.162-5.551-9.955c-2.905-4.046-10.272-6.744-10.272-7.056c-4.357-1.348-11.206,1.143-11.206,1.143
			s-3.009,1.66-2.905,5.5c0.207-0.104-0.312,4.253,2.075,7.782"/>
		<path fill="none" stroke="#FFF7AB" stroke-width="3" stroke-miterlimit="10" d="M793.419,205.334c0,0,2.386-3.853,0.882-9.553"/>
		<path fill="none" stroke="#FFF7AB" stroke-width="3" stroke-miterlimit="10" d="M773.498,180.743c0,0,16.222,7.031,20.199,24.061
			c0.084-0.187-1.418,10.18-16.982,0.53c-0.104-0.103-3.216-2.178-3.216-2.178"/>
		<path fill="none" stroke="#FFF7AB" stroke-width="3" stroke-miterlimit="10" d="M773.498,188.319c0,0,6.329-1.038,8.197,8.197
			c-0.104,0.103-10.896,9.441-10.896,9.441s0.416-7.573-5.914-9.546c-0.104-0.31,0-1.868,0-1.868L773.498,188.319z"/>
		<path fill="none" stroke="#FFF7AB" stroke-width="3" stroke-miterlimit="10" d="M741.383,218.816
			c5.603,11.985,9.805,10.117,9.961,9.961c9.027-1.089,2.957-29.105,3.113-29.26c-5.448-25.059-13.074-25.994-13.074-25.994
			s-4.203-1.244-6.226,10.428"/>
		<circle fill="none" stroke="#FFF7AB" stroke-width="3" stroke-miterlimit="10" cx="725.507" cy="202.474" r="3.735"/>
		<line fill="none" stroke="#FFF7AB" stroke-width="3" stroke-miterlimit="10" x1="741.85" y1="178.37" x2="726.696" y2="198.935"/>
		
			<line fill="none" stroke="#FFF7AB" stroke-width="3" stroke-miterlimit="10" x1="729.242" y1="202.474" x2="752.122" y2="198.935"/>
		
			<line fill="none" stroke="#FFF7AB" stroke-width="3" stroke-miterlimit="10" x1="727.906" y1="205.334" x2="750.099" y2="221.929"/>
		<path fill="none" stroke="#FFF7AB" stroke-width="3" stroke-miterlimit="10" d="M746.674,173.486c0,0,36.577,18.716,10.584,53.891
			"/>
		
			<line fill="none" stroke="#FFF7AB" stroke-width="3" stroke-miterlimit="10" x1="802.406" y1="188.652" x2="856.592" y2="238.087"/>
		
			<line fill="none" stroke="#FFF7AB" stroke-width="3" stroke-miterlimit="10" x1="780.146" y1="171.216" x2="729.242" y2="129.478"/>
		
			<line fill="none" stroke="#FFF7AB" stroke-width="3" stroke-miterlimit="10" x1="739.003" y1="120.451" x2="721.771" y2="136.637"/>
		
			<line fill="none" stroke="#FFF7AB" stroke-width="3" stroke-miterlimit="10" x1="721.771" y1="136.637" x2="767.271" y2="179.913"/>
		
			<line fill="none" stroke="#FFF7AB" stroke-width="3" stroke-miterlimit="10" x1="739.003" y1="120.451" x2="787.531" y2="163.407"/>
		
			<line fill="none" stroke="#FFF7AB" stroke-width="3" stroke-miterlimit="10" x1="814.045" y1="182.794" x2="866.987" y2="228.973"/>
		
			<line fill="none" stroke="#FFF7AB" stroke-width="3" stroke-miterlimit="10" x1="866.987" y1="228.973" x2="845.197" y2="248.078"/>
		
			<line fill="none" stroke="#FFF7AB" stroke-width="3" stroke-miterlimit="10" x1="845.197" y1="248.078" x2="794.799" y2="201.229"/>
		
			<line fill="none" stroke="#FFF7AB" stroke-width="3" stroke-miterlimit="10" x1="750.099" y1="129.478" x2="731.473" y2="145.864"/>
		<line fill="none" stroke="#FFF7AB" stroke-width="3" stroke-miterlimit="10" x1="761.7" y1="140.542" x2="742.746" y2="156.584"/>
		<line fill="none" stroke="#FFF7AB" stroke-width="3" stroke-miterlimit="10" x1="772.562" y1="150.157" x2="752.223" y2="165.6"/>
		<line fill="none" stroke="#FFF7AB" stroke-width="3" stroke-miterlimit="10" x1="781.285" y1="157.878" x2="761.7" y2="174.613"/>
		<line fill="none" stroke="#FFF7AB" stroke-width="3" stroke-miterlimit="10" x1="819.998" y1="188.652" x2="802.406" y2="208.3"/>
		
			<line fill="none" stroke="#FFF7AB" stroke-width="3" stroke-miterlimit="10" x1="830.47" y1="197.122" x2="811.202" y2="216.477"/>
		
			<line fill="none" stroke="#FFF7AB" stroke-width="3" stroke-miterlimit="10" x1="840.89" y1="206.208" x2="820.836" y2="225.432"/>
		
			<line fill="none" stroke="#FFF7AB" stroke-width="3" stroke-miterlimit="10" x1="854.06" y1="217.697" x2="832.132" y2="235.932"/>
	</g>
	<g>
		<circle fill="none" stroke="#FFF7AB" stroke-width="3" stroke-miterlimit="10" cx="768.513" cy="421.004" r="3.482"/>
		<circle fill="none" stroke="#FFF7AB" stroke-width="3" stroke-miterlimit="10" cx="798.416" cy="431.981" r="3.911"/>
		<circle fill="none" stroke="#FFF7AB" stroke-width="3" stroke-miterlimit="10" cx="825.588" cy="402.025" r="6.233"/>
		<circle fill="none" stroke="#FFF7AB" stroke-width="3" stroke-miterlimit="10" cx="809.908" cy="379.5" r="4.277"/>
		<circle fill="none" stroke="#FFF7AB" stroke-width="3" stroke-miterlimit="10" cx="833.719" cy="345.188" r="5.255"/>
		<circle fill="none" stroke="#FFF7AB" stroke-width="3" stroke-miterlimit="10" cx="868.546" cy="320.042" r="6.355"/>
		<circle fill="none" stroke="#FFF7AB" stroke-width="3" stroke-miterlimit="10" cx="909.142" cy="301.419" r="4.666"/>
		
			<line fill="none" stroke="#FFF7AB" stroke-width="3" stroke-miterlimit="10" x1="771.842" y1="422.03" x2="794.059" y2="430.476"/>
		
			<line fill="none" stroke="#FFF7AB" stroke-width="3" stroke-miterlimit="10" x1="800.133" y1="428.469" x2="820.739" y2="405.941"/>
		
			<line fill="none" stroke="#FFF7AB" stroke-width="3" stroke-miterlimit="10" x1="821.671" y1="397.177" x2="812.596" y2="382.829"/>
		
			<line fill="none" stroke="#FFF7AB" stroke-width="3" stroke-miterlimit="10" x1="810.316" y1="375.244" x2="829.631" y2="348.49"/>
		
			<line fill="none" stroke="#FFF7AB" stroke-width="3" stroke-miterlimit="10" x1="837.807" y1="341.887" x2="863.603" y2="324.036"/>
		
			<line fill="none" stroke="#FFF7AB" stroke-width="3" stroke-miterlimit="10" x1="874.757" y1="317.619" x2="904.722" y2="302.917"/>
	</g>
	<g>
		<circle fill="none" stroke="#FFF7AB" stroke-width="3" stroke-miterlimit="10" cx="695.892" cy="471.182" r="40.694"/>
		<path fill="none" stroke="#FFF7AB" stroke-width="3" stroke-miterlimit="10" d="M659.572,450.991c0,0-66.434,2.732,33.47,29.297
			c0,0,42.168,9.964,61.124,2.958c0.619-0.1,30.749-8.406-18.036-18.189"/>
		<path fill="none" stroke="#FFF7AB" stroke-width="3" stroke-miterlimit="10" d="M663.143,447.013c0,0-26.855-2.427-37.723,0.345
			c0,0-45.349,6.684,9.668,29.198c-0.339,0.189,41.306,20.282,104.238,20.276c-0.084,0.269,71.823,0.719,40.392-23.822
			c0,0-22.014-11.595-45.022-14.092"/>
		<path fill="none" stroke="#FFF7AB" stroke-width="3" stroke-miterlimit="10" d="M638.443,450.847c0,0-10.554,3.754-2.838,13.814
			c-0.198-0.356,22.815,15.082,57.912,19.598c-0.042,0.28,31.708,4.757,39.38,3.862"/>
		<path fill="none" stroke="#FFF7AB" stroke-width="3" stroke-miterlimit="10" d="M772.504,475.389c0,0,12.668,4.622,4.78,10.093
			c0.352-0.184-14.252,11.713-75.525,5.474"/>
		<path fill="none" stroke="#FFF7AB" stroke-width="3" stroke-miterlimit="10" d="M690.906,446.654
			c0.546,5.09,14.462,7.762,31.115,5.974"/>
		<path fill="none" stroke="#FFF7AB" stroke-width="3" stroke-miterlimit="10" d="M677.078,452.411
			c0.447,7.987,20.86,13.329,45.641,11.943"/>
		<path fill="none" stroke="#FFF7AB" stroke-width="3" stroke-miterlimit="10" d="M681.265,465.618
			c1.048,6.117,11.917,9.347,24.303,7.223"/>
		<path fill="none" stroke="#FFF7AB" stroke-width="3" stroke-miterlimit="10" d="M678.984,498.627
			c0.238,3.094,8.94,4.941,19.458,4.133"/>
	</g>
	<g>
		<path fill="none" stroke="#FFF7AB" stroke-width="3" stroke-miterlimit="10" d="M301.218,430.656
			c36.042-16.039,64.425-21.124,69.063-12.126c5.43,10.534-25.83,37.457-69.821,60.134c-41.243,21.261-79.033,31.242-88.07,23.727
			c-0.602-0.5-1.076-1.08-1.417-1.738c-4.528-8.783,14.344-27.683,46.959-47.298"/>
		<path fill="none" stroke="#FFF7AB" stroke-width="3" stroke-miterlimit="10" d="M212.389,502.391c0,0,1.071,16.86,53.585-0.27
			c0.224-0.115,37.228-11.524,73.596-37.938c0.34,0.108,41.704-33.142,30.71-45.653"/>
		<path fill="none" stroke="#FFF7AB" stroke-width="3" stroke-miterlimit="10" d="M256.073,477.404c0,0,39.413-8.388,64.396-33.197
			C320.81,444.317,255.939,384.036,256.073,477.404z"/>
		<circle fill="none" stroke="#FFF7AB" stroke-width="3" stroke-miterlimit="10" cx="268.533" cy="465.396" r="4.039"/>
		<circle fill="none" stroke="#FFF7AB" stroke-width="3" stroke-miterlimit="10" cx="286.85" cy="458.51" r="4.291"/>
		<circle fill="none" stroke="#FFF7AB" stroke-width="3" stroke-miterlimit="10" cx="304.116" cy="448.663" r="3.45"/>
		<path fill="none" stroke="#FFF7AB" stroke-width="3" stroke-miterlimit="10" d="M251.173,506.426c0,0,15.607,20.066,19.738-6.005"
			/>
		<path fill="none" stroke="#FFF7AB" stroke-width="3" stroke-miterlimit="10" d="M291.371,492.437c0,0,18.498,15.29,18.819-9.784"
			/>
		<path fill="none" stroke="#FFF7AB" stroke-width="3" stroke-miterlimit="10" d="M328.055,472.064c0,0,22.908,14.175,17.616-12.87"
			/>
	</g>
	<g>
		<circle fill="none" stroke="#FFF7AB" stroke-width="3" stroke-miterlimit="10" cx="203.234" cy="375.695" r="3.372"/>
		<circle fill="none" stroke="#FFF7AB" stroke-width="3" stroke-miterlimit="10" cx="223.806" cy="384.565" r="4.215"/>
		<circle fill="none" stroke="#FFF7AB" stroke-width="3" stroke-miterlimit="10" cx="233.954" cy="361.046" r="4.214"/>
		<circle fill="none" stroke="#FFF7AB" stroke-width="3" stroke-miterlimit="10" cx="257.769" cy="369.067" r="2.697"/>
		<circle fill="none" stroke="#FFF7AB" stroke-width="3" stroke-miterlimit="10" cx="267.562" cy="332.28" r="5.9"/>
		
			<line fill="none" stroke="#FFF7AB" stroke-width="3" stroke-miterlimit="10" x1="206.433" y1="376.76" x2="219.723" y2="383.521"/>
		<line fill="none" stroke="#FFF7AB" stroke-width="3" stroke-miterlimit="10" x1="225.62" y1="380.76" x2="232.296" y2="364.921"/>
		
			<line fill="none" stroke="#FFF7AB" stroke-width="3" stroke-miterlimit="10" x1="238.037" y1="362.088" x2="255.194" y2="368.268"/>
		
			<line fill="none" stroke="#FFF7AB" stroke-width="3" stroke-miterlimit="10" x1="259.217" y1="366.549" x2="266.252" y2="338.033"/>
	</g>
	<path fill="none" stroke="#FFF7AB" stroke-width="3" stroke-miterlimit="10" d="M620.931,170.741
		c-13.267-10.641-31.826-10.215-44.542,0.037c6.813-2.084,14.502-0.874,20.479,3.919c9.6,7.699,11.14,21.723,3.44,31.323
		c-7.7,9.599-21.722,11.14-31.321,3.439c-2.356-1.889-4.223-4.16-5.59-6.652c1.089,8.883,5.504,17.369,13.038,23.411
		c15.319,12.286,37.7,9.829,49.987-5.492C638.709,205.407,636.25,183.028,620.931,170.741z"/>
	<path fill="none" stroke="#FFF7AB" stroke-width="3" stroke-miterlimit="10" d="M458.818,571.146c0,0-20.063-91.327-9.914-97.408
		c10.15-6.081,13.468,6.211,29.413,3.895c15.945-2.318,17.129-15.896,16.103-20.632c-2.802-11.367-21.403-9.038-21.457-10.735
		c10.011-28.261-17.359-23.141-17.359-23.141c10.758-26.298-4.127-98.741-5.074-101.518c-14.209-30.249,1.806-96.207,1.806-96.207"
		/>
</g>
</svg>
